<?xml version="1.0" encoding="UTF-8"?>
<svg width="90px" height="23px" viewBox="0 0 90 23" version="1.1" xmlns="http://www.w3.org/2000/svg" xmlns:xlink="http://www.w3.org/1999/xlink">
    <!-- Generator: Sketch 55 (78076) - https://sketchapp.com -->
    <title>equihash</title>
    <desc>Created with Sketch.</desc>
    <g id="Page-1" stroke="none" stroke-width="1" fill="none" fill-rule="evenodd">
        <g id="IQmining_equihash" transform="translate(-452.000000, -38.000000)" fill="#00A2FF" fill-rule="nonzero">
            <g id="header" transform="translate(1.000000, 0.000000)">
                <g id="Group-5" transform="translate(423.000000, 36.000000)">
                    <g id="Group-2" transform="translate(0.000000, 1.000000)">
                        <path d="M34.5625,9 L34.5,9 L34.5,5.2 L32.993706,5.2 C32.569008,5.9747387 31.7458447,6.5 30.8,6.5 C29.4192881,6.5 28.3,5.38071187 28.3,4 C28.3,2.61928813 29.4192881,1.5 30.8,1.5 C31.7458447,1.5 32.569008,2.0252613 32.993706,2.8 L36.9,2.8 L36.9,7.625 L42.171875,7.625 L42.171875,9.5234375 L36.90625,9.5234375 L36.90625,12.234375 L41.40625,12.234375 L41.40625,14.0703125 L36.90625,14.0703125 L36.90625,17.1171875 L42.1875,17.1171875 L42.1875,19 L34.5625,19 L34.5625,9 Z M108.625,19 L108.625,14.125 L104.054688,14.125 L104.054688,19 L101.710938,19 L101.710938,7.625 L104.054688,7.625 L104.054688,12.234375 L108.625,12.234375 L108.625,7.625 L110.96875,7.625 L110.96875,17 L110.975,17 L110.975,19.825 L112.792774,19.825 C113.213358,19.0365827 114.044016,18.5 115,18.5 C116.380712,18.5 117.5,19.6192881 117.5,21 C117.5,22.3807119 116.380712,23.5 115,23.5 C114.044016,23.5 113.213358,22.9634173 112.792774,22.175 L108.625,22.175 L108.625,19 Z M52.890625,13.5703125 C52.890625,14.6328178 52.7187517,15.5559857 52.375,16.3398438 C52.0312483,17.1237018 51.5546905,17.7526018 50.9453125,18.2265625 L52.8359375,19.7109375 L51.34375,21.03125 L48.921875,19.0859375 C48.645832,19.1328127 48.3593765,19.15625 48.0625,19.15625 C47.119787,19.15625 46.2786495,18.9296898 45.5390625,18.4765625 C44.7994755,18.0234352 44.2265645,17.3763063 43.8203125,16.5351562 C43.4140605,15.6940062 43.2083334,14.726568 43.203125,13.6328125 L43.203125,13.0703125 C43.203125,11.9505152 43.4049459,10.964848 43.8085938,10.1132812 C44.2122416,9.26171449 44.7825484,8.6080752 45.5195312,8.15234375 C46.2565141,7.6966123 47.0989536,7.46875 48.046875,7.46875 C48.9947964,7.46875 49.8372359,7.6966123 50.5742188,8.15234375 C51.3112016,8.6080752 51.8815084,9.26171449 52.2851562,10.1132812 C52.6888041,10.964848 52.890625,11.9479111 52.890625,13.0625 L52.890625,13.5703125 Z M50.515625,13.0546875 C50.515625,11.8619732 50.3020855,10.9557323 49.875,10.3359375 C49.4479145,9.71614273 48.8385456,9.40625 48.046875,9.40625 C47.2604127,9.40625 46.653648,9.71223652 46.2265625,10.3242188 C45.799477,10.936201 45.5833334,11.8333274 45.578125,13.015625 L45.578125,13.5703125 C45.578125,14.7317766 45.7916645,15.6328093 46.21875,16.2734375 C46.6458355,16.9140657 47.2604127,17.234375 48.0625,17.234375 C48.8489623,17.234375 49.4531229,16.9257843 49.875,16.3085938 C50.2968771,15.6914032 50.5104166,14.7916726 50.515625,13.609375 L50.515625,13.0546875 Z M63.21875,7.625 L63.21875,15.1171875 C63.21875,16.3619854 62.829431,17.3463505 62.0507812,18.0703125 C61.2721315,18.7942745 60.2083401,19.15625 58.859375,19.15625 C57.5312434,19.15625 56.4765664,18.804691 55.6953125,18.1015625 C54.9140586,17.398434 54.5156251,16.4322978 54.5,15.203125 L54.5,7.625 L56.84375,7.625 L56.84375,15.1328125 C56.84375,15.8776079 57.0221336,16.4205712 57.3789062,16.7617188 C57.7356789,17.1028663 58.2291635,17.2734375 58.859375,17.2734375 C60.1770899,17.2734375 60.8463541,16.5807361 60.8671875,15.1953125 L60.8671875,7.625 L63.21875,7.625 Z M67.6328125,19 L65.2890625,19 L65.2890625,7.625 L67.6328125,7.625 L67.6328125,19 Z M79.0625,19 L76.71875,19 L76.71875,14.125 L72.1484375,14.125 L72.1484375,19 L69.8046875,19 L69.8046875,7.625 L72.1484375,7.625 L72.1484375,12.234375 L76.71875,12.234375 L76.71875,7.625 L79.0625,7.625 L79.0625,19 Z M87.53125,16.65625 L83.421875,16.65625 L82.640625,19 L80.1484375,19 L84.3828125,7.625 L86.5546875,7.625 L90.8125,19 L88.3203125,19 L87.53125,16.65625 Z M84.0546875,14.7578125 L86.8984375,14.7578125 L85.46875,10.5 L84.0546875,14.7578125 Z M97.7734375,16.015625 C97.7734375,15.5729145 97.6171891,15.2330741 97.3046875,14.9960938 C96.9921859,14.7591134 96.4296916,14.5091159 95.6171875,14.2460938 C94.8046834,13.9830716 94.1614607,13.7239596 93.6875,13.46875 C92.3958269,12.7708298 91.75,11.8307351 91.75,10.6484375 C91.75,10.0338511 91.9231754,9.48567949 92.2695312,9.00390625 C92.6158871,8.52213301 93.113278,8.14583469 93.7617188,7.875 C94.4101595,7.60416531 95.1380168,7.46875 95.9453125,7.46875 C96.7578166,7.46875 97.4817677,7.61588395 98.1171875,7.91015625 C98.7526073,8.20442855 99.246092,8.61978898 99.5976562,9.15625 C99.9492205,9.69271102 100.125,10.3020799 100.125,10.984375 L97.78125,10.984375 C97.78125,10.4635391 97.6171891,10.0585952 97.2890625,9.76953125 C96.9609359,9.4804673 96.500003,9.3359375 95.90625,9.3359375 C95.3333305,9.3359375 94.8880224,9.45703004 94.5703125,9.69921875 C94.2526026,9.94140746 94.09375,10.2604147 94.09375,10.65625 C94.09375,11.0260435 94.2799461,11.3359362 94.6523438,11.5859375 C95.0247414,11.8359388 95.572913,12.0703114 96.296875,12.2890625 C97.630215,12.6901062 98.6015595,13.187497 99.2109375,13.78125 C99.8203155,14.375003 100.125,15.1145789 100.125,16 C100.125,16.9843799 99.7526079,17.7565076 99.0078125,18.3164062 C98.2630171,18.8763049 97.260423,19.15625 96,19.15625 C95.1249956,19.15625 94.3281286,18.9960954 93.609375,18.6757812 C92.8906214,18.3554671 92.3424498,17.9166695 91.9648438,17.359375 C91.5872377,16.8020805 91.3984375,16.1562537 91.3984375,15.421875 L93.75,15.421875 C93.75,16.6770896 94.4999925,17.3046875 96,17.3046875 C96.5572945,17.3046875 96.9921859,17.1914074 97.3046875,16.9648438 C97.6171891,16.7382801 97.7734375,16.421877 97.7734375,16.015625 Z M115,21.5 C115.276142,21.5 115.5,21.2761424 115.5,21 C115.5,20.7238576 115.276142,20.5 115,20.5 C114.723858,20.5 114.5,20.7238576 114.5,21 C114.5,21.2761424 114.723858,21.5 115,21.5 Z M30.8,3.5 C30.5238576,3.5 30.3,3.72385763 30.3,4 C30.3,4.27614237 30.5238576,4.5 30.8,4.5 C31.0761424,4.5 31.3,4.27614237 31.3,4 C31.3,3.72385763 31.0761424,3.5 30.8,3.5 Z" id="equihash"></path>
                    </g>
                </g>
            </g>
        </g>
    </g>
</svg>