<?xml version="1.0" encoding="UTF-8"?>
<svg width="25px" height="25px" viewBox="0 0 25 25" version="1.1" xmlns="http://www.w3.org/2000/svg" xmlns:xlink="http://www.w3.org/1999/xlink">
    <!-- Generator: Sketch 55 (78076) - https://sketchapp.com -->
    <title>new</title>
    <desc>Created with Sketch.</desc>
    <g id="Page-1" stroke="none" stroke-width="1" fill="none" fill-rule="evenodd">
        <g id="IQmining_equihash" transform="translate(-424.000000, -37.000000)" fill-rule="nonzero">
            <g id="header" transform="translate(1.000000, 0.000000)">
                <g id="Group-5" transform="translate(423.000000, 36.000000)">
                    <g id="Group-2" transform="translate(0.000000, 1.000000)">
                        <g id="new">
                            <path d="M23.5633401,10.6460285 C23.1788187,10.3625255 22.6943483,10.0084012 22.6356925,9.77703666 C22.660336,9.32917515 22.7882383,8.89312627 23.0093686,8.50290224 C23.3482688,7.72515275 23.6980143,6.91919552 23.309165,6.24898167 C22.9203157,5.57876782 22.0360998,5.47016293 21.1855906,5.37998982 C20.7447556,5.37703666 20.3104379,5.27337067 19.9157841,5.07693483 C19.7190428,4.68090631 19.6157332,4.24501018 19.6137984,3.80280041 C19.5182281,2.95229124 19.4193483,2.07245418 18.7448065,1.67922607 C18.0702648,1.28599796 17.2631874,1.63034623 16.4854888,1.97357434 C16.0948574,2.19460285 15.6584521,2.32245418 15.2102851,2.34725051 C14.9756619,2.2842668 14.6226578,1.80412424 14.3412933,1.41960285 C13.848167,0.754837067 13.2930754,0.00101832994 12.491446,0.00101832994 C11.6898167,0.00101832994 11.134776,0.754837067 10.6448574,1.41960285 C10.3602851,1.80519348 10.0072301,2.2885947 9.77586558,2.34831976 C9.32810591,2.32133401 8.89215886,2.19363544 8.50066191,1.97464358 C7.71858452,1.63029532 6.91262729,1.28706721 6.24460285,1.673778 C5.57657841,2.0604888 5.46471487,2.94684318 5.36909369,3.80274949 C5.36598778,4.24343177 5.26272912,4.67764766 5.06710794,5.07255601 C4.67321792,5.26619145 4.24058045,5.36792261 3.80168024,5.37016293 C2.95010183,5.4657332 2.0691446,5.56461303 1.67703666,6.23915479 C1.28492872,6.91369654 1.6293279,7.7197556 1.97255601,8.49857434 C2.19439919,8.89007128 2.32230143,9.32769857 2.34623218,9.77703666 C2.28324847,10.0116599 1.80310591,10.3657841 1.41858452,10.6460285 C0.753818737,11.1348269 0,11.6909878 0,12.4926171 C0,13.2942464 0.753818737,13.8504073 1.41970468,14.3392057 C1.80422607,14.6227088 2.28869654,14.976833 2.34735234,15.2081976 C2.32270876,15.6560591 2.19480652,16.0921079 1.97367617,16.482332 C1.63477597,17.2600815 1.28503055,18.0660387 1.67387984,18.7362525 C2.06272912,19.4064664 2.94694501,19.5150713 3.79745418,19.6052444 C4.23828921,19.6081976 4.67260692,19.7118635 5.06726069,19.9082994 C5.26400204,20.3043279 5.36731161,20.740224 5.36924644,21.1824338 C5.4648167,22.032943 5.56369654,22.91278 6.23823829,23.3060081 C6.91278004,23.6992363 7.71334012,23.345112 8.49215886,23.0062118 C8.88671079,22.7876273 9.32566191,22.6613544 9.77606925,22.6369145 C10.0106925,22.6998982 10.3636965,23.1800407 10.6450611,23.5645621 C11.1349287,24.2293279 11.6900204,24.9831466 12.4916497,24.9831466 C13.293279,24.9831466 13.8483198,24.2293279 14.3382383,23.5645621 C14.6228106,23.1789715 14.9758656,22.6955703 15.2072301,22.6358452 C15.6552953,22.6612016 16.0915479,22.789002 16.4824338,23.0095214 C17.2601833,23.3484216 18.0661405,23.6960285 18.7352342,23.310387 C19.4043279,22.9247963 19.5151222,22.0373218 19.6107434,21.1857434 C19.6138493,20.7450611 19.7171079,20.3108452 19.9127291,19.9159369 C20.307332,19.720723 20.7411914,19.6178208 21.1814155,19.6150713 C22.0329939,19.519501 22.9139511,19.4206212 23.3060591,18.7460794 C23.698167,18.0715377 23.3440937,17.2709776 23.0062627,16.4921589 C22.7851324,16.0986762 22.6587067,15.6590631 22.6369654,15.2082485 C22.6999491,14.9736253 23.1800916,14.619501 23.564613,14.3392566 C24.2293788,13.849389 24.9843177,13.2932281 24.9843177,12.492668 C24.9843177,11.6921079 24.2291752,11.1348269 23.5633401,10.6460285 Z" id="Path" fill="#00A2FF"></path>
                            <g id="Group" transform="translate(5.397149, 9.775967)" fill="#FFFFFF">
                                <path d="M3.83569246,5.43217923 C3.66476578,5.43217923 3.50376782,5.35168024 3.401222,5.21491853 L1.12016293,2.17352342 L1.12016293,4.88905295 C1.12016293,5.18900204 0.876985743,5.43217923 0.57703666,5.43217923 C0.277087576,5.43217923 0.033910387,5.18900204 0.033910387,4.88905295 L0.033910387,0.544195519 C0.033910387,0.244246436 0.277087576,0.00106924644 0.57703666,0.00106924644 C0.74796334,0.00106924644 0.908961303,0.0815682281 1.01150713,0.218329939 L3.29256619,3.25972505 L3.29256619,0.544195519 C3.29256619,0.244246436 3.53574338,0.00106924644 3.83569246,0.00106924644 C4.13564155,0.00106924644 4.37881874,0.244246436 4.37881874,0.544195519 L4.37881874,4.88905295 C4.37866599,5.12270876 4.2290224,5.33009165 4.00733198,5.40392057 C3.95203666,5.42265784 3.89409369,5.43217923 3.83569246,5.43217923 Z" id="Path"></path>
                                <path d="M8.18060081,5.43217923 L6.00814664,5.43217923 C5.70819756,5.43217923 5.46502037,5.18900204 5.46502037,4.88905295 L5.46502037,0.544195519 C5.46502037,0.244246436 5.70819756,0.00106924644 6.00814664,0.00106924644 L8.18060081,0.00106924644 C8.4805499,0.00106924644 8.72372709,0.244246436 8.72372709,0.544195519 C8.72372709,0.844144603 8.4805499,1.08732179 8.18060081,1.08732179 L6.55127291,1.08732179 L6.55127291,4.3459776 L8.18060081,4.3459776 C8.4805499,4.3459776 8.72372709,4.58915479 8.72372709,4.88910387 C8.72372709,5.18905295 8.4805499,5.43217923 8.18060081,5.43217923 Z" id="Path"></path>
                                <path d="M8.18060081,3.25972505 L6.00814664,3.25972505 C5.70819756,3.25972505 5.46502037,3.01654786 5.46502037,2.71659878 C5.46502037,2.41664969 5.70819756,2.17347251 6.00814664,2.17347251 L8.18060081,2.17347251 C8.4805499,2.17347251 8.72372709,2.41664969 8.72372709,2.71659878 C8.72372709,3.01654786 8.4805499,3.25972505 8.18060081,3.25972505 Z" id="Path"></path>
                                <path d="M13.6116599,5.43217923 C13.3775967,5.43248473 13.1696538,5.28279022 13.095723,5.06069246 L12.5254582,3.34770876 L11.9551935,5.06069246 C11.8857943,5.2950611 11.6623727,5.44933809 11.4185845,5.43110998 C11.1773422,5.42194501 10.9711303,5.25468432 10.9124236,5.02051935 L9.826222,0.675661914 C9.75361507,0.384419552 9.93090631,0.0894602851 10.2221487,0.0168533605 C10.513391,-0.0557535642 10.8083503,0.121537678 10.8809572,0.412780041 L11.5142057,2.94801426 L12.0105906,1.45880855 C12.139664,1.17413442 12.4750509,1.04801426 12.7597251,1.17708758 C12.8846741,1.23375764 12.984776,1.33385947 13.041446,1.45880855 L13.537831,2.94801426 L14.1710794,0.412780041 C14.2436864,0.121537678 14.5385947,-0.0557535642 14.829888,0.0168533605 C15.1211303,0.0894602851 15.2984216,0.384368635 15.2258147,0.675661914 L14.139613,5.02051935 C14.0809063,5.25468432 13.8746436,5.42194501 13.6334521,5.43110998 L13.6116599,5.43217923 Z" id="Path"></path>
                            </g>
                        </g>
                    </g>
                </g>
            </g>
        </g>
    </g>
</svg>