<?xml version="1.0" encoding="UTF-8"?>
<svg width="18px" height="18px" viewBox="0 0 18 18" version="1.1" xmlns="http://www.w3.org/2000/svg" xmlns:xlink="http://www.w3.org/1999/xlink">
    <!-- Generator: Sketch 55.1 (78136) - https://sketchapp.com -->
    <title>close</title>
    <desc>Created with Sketch.</desc>
    <g id="Page-1" stroke="none" stroke-width="1" fill="none" fill-rule="evenodd">
        <g id="Artboard" transform="translate(-723.000000, -19.000000)" fill="#FFFFFF" fill-rule="nonzero" stroke="#FFFFFF">
            <path d="M732.914028,27.9999958 L739.810714,34.8966557 C740.06309,35.1490621 740.06309,35.558281 739.810746,35.8107187 C739.684589,35.9369062 739.519151,36 739.353745,36 C739.188338,36 739.0229,35.9369062 738.896712,35.8106874 L732.000019,28.9140053 L725.103368,35.8106562 C724.977149,35.9369062 724.811743,36 724.646336,36 C724.48093,36 724.315492,35.9369375 724.189305,35.8106874 C723.936898,35.558281 723.936898,35.1490621 724.189305,34.8966557 L731.085993,27.9999817 L724.189305,21.1033052 C723.936898,20.8508989 723.936898,20.4416799 724.189305,20.1893048 C724.441681,19.9368984 724.850932,19.9368984 725.103307,20.1893048 L732.000003,27.0859742 L738.896687,20.1893048 C739.149093,19.9368984 739.558312,19.9368984 739.810719,20.1893048 C740.063094,20.4417112 740.063094,20.8509301 739.810719,21.1033052 L732.914028,27.9999958 Z" id="close"></path>
        </g>
    </g>
</svg>