<svg xmlns="http://www.w3.org/2000/svg" width="17" height="16" viewBox="0 0 17 16"><g><g><g><path fill="#2b2d32" d="M16.311 7.877a.7.7 0 0 0-.702.702v4.107c0 .978-.796 1.774-1.773 1.774H3.927a1.777 1.777 0 0 1-1.774-1.774V8.512a.7.7 0 0 0-.701-.702.7.7 0 0 0-.702.702v4.174a3.18 3.18 0 0 0 3.177 3.178h9.909a3.18 3.18 0 0 0 3.177-3.178V8.58a.702.702 0 0 0-.702-.702z"/></g><g><path fill="#2b2d32" d="M9.586 1.462A.7.7 0 0 0 8.884.76a.7.7 0 0 0-.701.702v8.559L6.509 8.347a.7.7 0 0 0-.993 0 .7.7 0 0 0 0 .992l2.874 2.87a.69.69 0 0 0 .992-.003l2.867-2.867a.7.7 0 0 0 0-.992.7.7 0 0 0-.992 0L9.586 10.02z"/></g></g></g></svg>