<?xml version="1.0" encoding="UTF-8"?>
<svg width="132px" height="40px" viewBox="0 0 132 40" version="1.1" xmlns="http://www.w3.org/2000/svg" xmlns:xlink="http://www.w3.org/1999/xlink">
    <!-- Generator: Sketch 55.1 (78136) - https://sketchapp.com -->
    <title>Logo</title>
    <desc>Created with Sketch.</desc>
    <g id="Page-1" stroke="none" stroke-width="1" fill="none" fill-rule="evenodd">
        <g id="Artboard" transform="translate(-60.000000, -60.000000)" fill="#FFFFFF" fill-rule="nonzero">
            <g id="01" transform="translate(60.000000, -60.000000)">
                <g id="Logo" transform="translate(0.000000, 120.000000)">
                    <path d="M50.9620621,15.0748698 L50.9620621,9.45032812 L49.8240637,8.32038333 L48.3176259,8.32038333 C47.977229,9.29816301 47.0454459,10.0000833 45.9493637,10.0000833 C44.5651783,10.0000833 43.4430146,8.88067083 43.4430146,7.49992083 C43.4430146,6.11939583 44.5651783,4.99998333 45.9493637,4.99998333 C47.0403378,4.99998333 47.9685406,5.69537653 48.3128283,6.66592083 L50.1200558,6.66592083 L50.1200558,6.94320996 L50.3957921,6.66940833 L52.6300141,8.88790833 L52.3492164,9.16675833 L52.6329014,9.16675833 L52.6329014,15.0748698 L53.8828125,15.0748698 L57.8968552,25.0651042 L57.975178,25.0651042 L61.9892207,15.0748698 L65.4158426,15.0748698 L65.4158426,29.1666667 L62.7822389,29.1666667 L62.7822389,19.6549479 L62.7039161,19.6549479 L58.8660997,29.0299479 L57.0059335,29.0299479 L53.1681171,19.6549479 L53.0897943,19.6549479 L53.0897943,29.1666667 L50.4561907,29.1666667 L50.4561907,15.0748698 L50.9620621,15.0748698 Z M69.4453938,15.0748698 L69.4453938,12.5000208 L69.5874661,12.5000208 L69.3447898,12.2559333 L71.6882777,9.89872083 L71.926389,10.1382168 L71.926389,10.0000833 L77.0541206,10.0000833 C77.3945854,9.02900004 78.3133006,8.33324583 79.3931945,8.33324583 C80.7630337,8.33324583 81.8733776,9.45262083 81.8733776,10.8334083 C81.8733776,12.2141583 80.7630337,13.3333083 79.3931945,13.3333083 C78.3133034,13.3333083 77.3945901,12.6376976 77.0541232,11.6666958 L72.2739461,11.6666958 L71.1024283,12.8450746 L71.1024283,15.8332458 L70.7222112,15.8332458 L70.7222112,29.1666667 L67.7655261,29.1666667 L67.7655261,15.0748698 L69.4453938,15.0748698 Z M88.5569386,15.0748698 L88.5569386,14.9999208 L90.2278682,14.9999208 L90.2278682,15.0748698 L90.3518592,15.0748698 L90.3518592,29.1666667 L90.2278682,29.1666667 L90.2278682,33.1246085 L94.8736641,36.6666708 L98.7248589,36.6666708 C99.0689304,35.6956765 99.997334,35.0000583 101.088594,35.0000583 C102.47278,35.0000583 103.594943,36.1192458 103.594943,37.4999958 C103.594943,38.8807458 102.47278,39.9999333 101.088594,39.9999333 C99.997334,39.9999333 99.0689304,39.3043151 98.7248589,38.3333208 L94.4050566,38.3333208 L94.4050566,38.2846892 L94.3794319,38.3263083 L88.9241123,34.1667708 L88.5569386,34.1667708 L88.5569386,29.1666667 L87.3951741,29.1666667 L87.3951741,15.0748698 L88.5569386,15.0748698 Z M119.654012,23.3332834 C119.638007,25.2135829 119.086609,26.6925348 117.999802,27.7701823 C116.890224,28.8639378 115.353155,29.4108073 113.388548,29.4108073 C111.273822,29.4108073 109.612743,28.7597721 108.405261,27.4576823 C107.191252,26.1555924 106.584256,24.3619906 106.584256,22.0768229 C106.584256,19.8242075 107.187988,18.0533919 108.395471,16.7643229 C109.596426,15.475254 111.237925,14.8307292 113.320016,14.8307292 C114.964803,14.8307292 116.358281,15.2734331 117.500494,16.1588542 C118.642707,17.0442753 119.318235,18.1998627 119.527097,19.625651 L116.560621,19.625651 C116.345232,18.8899703 115.953622,18.3138042 115.385779,17.8971354 C114.811409,17.4804667 114.126092,17.2721354 113.329806,17.2721354 C112.161485,17.2721354 111.247729,17.6920531 110.588509,18.531901 C109.929289,19.371749 109.599684,20.5403571 109.599684,22.0377604 C109.599684,23.5612055 109.945606,24.7623654 110.63746,25.641276 C111.322788,26.5201867 112.256125,26.9596354 113.4375,26.9596354 C114.403486,26.9596354 115.193233,26.6894558 115.806764,26.1490885 C116.413769,25.6087213 116.733584,24.9023481 116.766218,24.0299479 L116.776009,23.8053385 L113.701839,23.8053385 L113.701839,21.656901 L119.654371,21.656901 L119.654371,21.6668958 L124.480976,21.6668958 L124.480976,21.9044603 L128.751016,25.9450028 C128.985682,25.8724945 129.235102,25.8334458 129.493674,25.8334458 C130.87786,25.8334458 132.000023,26.9525958 132.000023,28.3333458 C132.000023,29.7140958 130.87786,30.8332833 129.493674,30.8332833 C128.109399,30.8332833 126.987415,29.7140958 126.987415,28.3333458 C126.987415,27.8112904 127.14781,27.3266323 127.422132,26.9257232 L123.625289,23.3332833 L119.654016,23.3332833 Z M73.0718948,29.1666667 L73.0718948,15.0748698 L75.5390625,15.0748698 L82.1377571,24.2545573 L82.2160799,24.2545573 L82.2160799,15.0748698 L85.0454905,15.0748698 L85.0454905,29.1666667 L82.5979035,29.1666667 L75.9894185,19.938151 L75.9013054,19.938151 L75.9013054,29.1666667 L73.0718948,29.1666667 Z M92.7015427,29.1666667 L92.7015427,15.0748698 L95.1687104,15.0748698 L101.767405,24.2545573 L101.845728,24.2545573 L101.845728,15.0748698 L104.675138,15.0748698 L104.675138,29.1666667 L102.227551,29.1666667 L95.6190665,19.938151 L95.5309533,19.938151 L95.5309533,29.1666667 L92.7015427,29.1666667 Z M128.685573,28.1211474 C128.667747,28.1888935 128.658255,28.2600113 128.658255,28.3333458 C128.658255,28.7936958 129.032249,29.1666708 129.493674,29.1666708 C129.955099,29.1666708 130.329094,28.7936958 130.329094,28.3333458 C130.329094,27.8730333 129.955099,27.5000583 129.493674,27.5000583 C129.466467,27.5000583 129.439564,27.501355 129.413024,27.5038898 L128.722497,28.1560833 L128.685573,28.1211474 Z M45.9493637,6.66659583 C45.4879385,6.66659583 45.1138539,7.03983333 45.1138539,7.49992083 C45.1138539,7.96023333 45.4879385,8.33324583 45.9493637,8.33324583 C46.410789,8.33324583 46.7847834,7.96023333 46.7847834,7.49992083 C46.7847834,7.03983333 46.410789,6.66659583 45.9493637,6.66659583 Z M79.3931945,10.0000833 C78.9317693,10.0000833 78.5577749,10.3730583 78.5577749,10.8334083 C78.5577749,11.2934958 78.9317693,11.6666958 79.3931945,11.6666958 C79.8546197,11.6666958 80.2286142,11.2934958 80.2286142,10.8334083 C80.2286142,10.3730583 79.8546197,10.0000833 79.3931945,10.0000833 Z M101.088594,36.6666708 C100.627259,36.6666708 100.253175,37.0396833 100.253175,37.4999958 C100.253175,37.9603083 100.627259,38.3333208 101.088594,38.3333208 C101.550019,38.3333208 101.924104,37.9603083 101.924104,37.4999958 C101.924104,37.0396833 101.550019,36.6666708 101.088594,36.6666708 Z M33.4177441,27.571092 C33.5483956,27.5250343 33.6889908,27.4999733 33.8354539,27.4999733 L36.3417914,27.4999733 C37.0338515,27.4999733 37.5949208,28.0595733 37.5949208,28.7499333 C37.5949208,29.4403333 37.0338515,29.9998933 36.3417914,29.9998933 L33.8354539,29.9998933 C33.6000485,29.9998933 33.3798019,29.9351578 33.1916363,29.8225569 C32.7031716,31.3862787 31.465786,32.6205568 29.8981289,33.1078123 C30.0110336,33.2954998 30.0759477,33.5151923 30.0759477,33.7500133 L30.0759477,36.2499733 C30.0759477,36.9403333 29.5148784,37.4999333 28.822779,37.4999333 C28.1307188,37.4999333 27.5696495,36.9403333 27.5696495,36.2499733 L27.5696495,33.7500133 C27.5696495,33.6039232 27.5947745,33.4636886 27.6409491,33.3333733 L23.3210942,33.3333733 C23.3672692,33.4636886 23.3923942,33.6039232 23.3923942,33.7500133 L23.3923942,36.2499733 C23.3923942,36.9403333 22.8313249,37.4999333 22.1392255,37.4999333 C21.4471653,37.4999333 20.886096,36.9403333 20.886096,36.2499733 L20.886096,33.7500133 C20.886096,33.6039232 20.9112211,33.4636886 20.9573956,33.3333733 L16.6375411,33.3333733 C16.6837157,33.4636886 16.7088407,33.6039232 16.7088407,33.7500133 L16.7088407,36.2499733 C16.7088407,36.9403333 16.1477714,37.4999333 15.4557112,37.4999333 C14.7636118,37.4999333 14.2025425,36.9403333 14.2025425,36.2499733 L14.2025425,33.7500133 C14.2025425,33.6039232 14.2276676,33.4636886 14.2738425,33.3333733 L9.95398759,33.3333733 C10.0001622,33.4636886 10.0252872,33.6039232 10.0252872,33.7500133 L10.0252872,36.2499733 C10.0252872,36.9403333 9.46421787,37.4999333 8.77215775,37.4999333 C8.08001909,37.4999333 7.51898901,36.9403333 7.51898901,36.2499733 L7.51898901,33.7500133 C7.51898901,33.5151929 7.58389827,33.295501 7.69679797,33.1078138 C6.12912856,32.6205589 4.89175353,31.3862782 4.40329583,29.8225529 C4.21512289,29.9351563 3.9948651,29.9998933 3.75944354,29.9998933 L1.25314534,29.9998933 C0.561085215,29.9998933 1.58734177e-05,29.4403333 1.58734177e-05,28.7499333 C1.58734177e-05,28.0595733 0.561085215,27.4999733 1.25314534,27.4999733 L3.75944354,27.4999733 C3.90592218,27.4999733 4.04653047,27.5250367 4.17719263,27.5710988 L4.17719263,23.2622645 C4.04653047,23.308341 3.90592218,23.3334133 3.75944354,23.3334133 L1.25314534,23.3334133 C0.561085215,23.3334133 1.58734177e-05,22.7736133 1.58734177e-05,22.0832133 C1.58734177e-05,21.3930933 0.561085215,20.8332533 1.25314534,20.8332533 L3.75944354,20.8332533 C3.90592218,20.8332533 4.04653047,20.8583275 4.17719263,20.9044042 L4.17719263,16.5956079 C4.04653047,16.6416699 3.90592218,16.6667333 3.75944354,16.6667333 L1.25314534,16.6667333 C0.561085215,16.6667333 1.58734177e-05,16.1071333 1.58734177e-05,15.4167733 C1.58734177e-05,14.7263733 0.561085215,14.1665733 1.25314534,14.1665733 L3.75944354,14.1665733 C3.90592218,14.1665733 4.04653047,14.1916457 4.17719263,14.2377222 L4.17719263,9.92888792 C4.04653047,9.97494993 3.90592218,10.0000133 3.75944354,10.0000133 L1.25314534,10.0000133 C0.561085215,10.0000133 1.58734177e-05,9.44041333 1.58734177e-05,8.75005333 C1.58734177e-05,8.05965333 0.561085215,7.50009333 1.25314534,7.50009333 L3.75944354,7.50009333 C3.9948651,7.50009333 4.21512289,7.56483038 4.40329583,7.67743378 C4.89175353,6.1137085 6.12912856,4.8794278 7.69679797,4.39217291 C7.58389827,4.2044857 7.51898901,3.98479376 7.51898901,3.74997333 L7.51898901,1.25001333 C7.51898901,0.559653333 8.08001909,5.3333333e-05 8.77215775,5.3333333e-05 C9.46421787,5.3333333e-05 10.0252872,0.559653333 10.0252872,1.25001333 L10.0252872,3.74997333 C10.0252872,3.89606345 10.0001622,4.03629804 9.95398759,4.16661333 L14.2738425,4.16661333 C14.2276676,4.03629804 14.2025425,3.89606345 14.2025425,3.74997333 L14.2025425,1.25001333 C14.2025425,0.559653333 14.7636118,5.3333333e-05 15.4557112,5.3333333e-05 C16.1477714,5.3333333e-05 16.7088407,0.559653333 16.7088407,1.25001333 L16.7088407,3.74997333 C16.7088407,3.89606345 16.6837157,4.03629804 16.6375411,4.16661333 L20.9573956,4.16661333 C20.9112211,4.03629804 20.886096,3.89606345 20.886096,3.74997333 L20.886096,1.25001333 C20.886096,0.559653333 21.4471653,5.3333333e-05 22.1392255,5.3333333e-05 C22.8313249,5.3333333e-05 23.3923942,0.559653333 23.3923942,1.25001333 L23.3923942,3.74997333 C23.3923942,3.89606345 23.3672692,4.03629804 23.3210942,4.16661333 L27.6409491,4.16661333 C27.5947745,4.03629804 27.5696495,3.89606345 27.5696495,3.74997333 L27.5696495,1.25001333 C27.5696495,0.559653333 28.1307188,5.3333333e-05 28.822779,5.3333333e-05 C29.5148784,5.3333333e-05 30.0759477,0.559653333 30.0759477,1.25001333 L30.0759477,3.74997333 C30.0759477,3.98479437 30.0110336,4.20448685 29.8981289,4.39217437 C31.465786,4.87942987 32.7031716,6.11370797 33.1916363,7.6774298 C33.3798019,7.56482886 33.6000485,7.50009333 33.8354539,7.50009333 L36.3417914,7.50009333 C37.0338515,7.50009333 37.5949208,8.05965333 37.5949208,8.75005333 C37.5949208,9.44041333 37.0338515,10.0000133 36.3417914,10.0000133 L33.8354539,10.0000133 C33.6889908,10.0000133 33.5483956,9.97495239 33.4177441,9.9288947 L33.4177441,14.2377154 C33.5483956,14.1916432 33.6889908,14.1665733 33.8354539,14.1665733 L36.3417914,14.1665733 C37.0338515,14.1665733 37.5949208,14.7263733 37.5949208,15.4167733 C37.5949208,16.1071333 37.0338515,16.6667333 36.3417914,16.6667333 L33.8354539,16.6667333 C33.6889908,16.6667333 33.5483956,16.6416724 33.4177441,16.5956147 L33.4177441,20.9043974 C33.5483956,20.858325 33.6889908,20.8332533 33.8354539,20.8332533 L36.3417914,20.8332533 C37.0338515,20.8332533 37.5949208,21.3930933 37.5949208,22.0832133 C37.5949208,22.7736133 37.0338515,23.3334133 36.3417914,23.3334133 L33.8354539,23.3334133 C33.6889908,23.3334133 33.5483956,23.3083434 33.4177441,23.2622712 L33.4177441,27.571092 Z M10.0252872,6.66677333 C8.17971501,6.66677333 6.68356937,8.15917333 6.68356937,10.0000133 L6.68356937,27.4999733 C6.68356937,29.3410533 8.17971501,30.8334533 10.0252872,30.8334533 L27.5696495,30.8334533 C29.4152217,30.8334533 30.9114066,29.3410533 30.9114066,27.4999733 L30.9114066,10.0000133 C30.9114066,8.15917333 29.4152217,6.66677333 27.5696495,6.66677333 L10.0252872,6.66677333 Z M10.8607461,8.33337333 L24.2278531,8.33337333 L29.2404888,13.3332533 L29.2404888,26.6664133 C29.2404888,28.0474133 28.1183501,29.1666133 26.7341906,29.1666133 L10.8607461,29.1666133 C9.47654734,29.1666133 8.35444792,28.0474133 8.35444792,26.6664133 L8.35444792,10.8333333 C8.35444792,9.45257333 9.47654734,8.33337333 10.8607461,8.33337333 Z M11.2690505,14.0201628 L12.4271121,14.2423045 L12.4271121,21.980243 L11.2690505,22.2023848 L11.2690505,23.4982118 L15.745404,23.4982118 L15.745404,22.2023848 L14.5873424,21.980243 L14.5873424,14.2423045 L15.745404,14.0201628 L15.745404,12.716931 L11.2690505,12.716931 L11.2690505,14.0201628 Z M26.4500506,18.1890234 L26.4500506,18.0261194 C26.4500506,16.4563097 25.9959861,15.153091 25.0878435,14.1164242 C24.1797009,13.0797574 22.9931945,12.5614318 21.5282887,12.5614318 C20.0683319,12.5614318 18.8904861,13.0797574 17.994716,14.1164242 C17.0989459,15.153091 16.6510676,16.4563097 16.6510676,18.0261194 L16.6510676,18.1890234 C16.6510676,19.7687061 17.1001832,21.074393 17.9984278,22.1061233 C18.8966724,23.1378536 20.0757554,23.653711 21.5357122,23.653711 C21.7287234,23.653711 21.922969,23.6413699 22.1184547,23.6166874 C22.3139404,23.5920049 22.508186,23.559918 22.7011973,23.520426 L25.291989,25.2605365 L26.8212242,24.0831851 L24.5199479,22.654073 C25.1286756,22.1653587 25.6025358,21.5334951 25.9415428,20.7584632 C26.2805497,19.9834314 26.4500506,19.12696 26.4500506,18.1890234 Z M24.2898202,18.01131 L24.2898202,18.1890234 C24.2898202,19.3244203 24.0596949,20.2388948 23.5994374,20.9324743 C23.1391798,21.6260537 22.4512783,21.9728383 21.5357122,21.9728383 C20.630044,21.9728383 19.9508032,21.6260537 19.4979691,20.9324743 C19.0451351,20.2388948 18.8187214,19.3244203 18.8187214,18.1890234 L18.8187214,18.01131 C18.8187214,16.885786 19.0426606,15.9774821 19.4905456,15.2863709 C19.9384307,14.5952597 20.6176716,14.2497093 21.5282887,14.2497093 C22.4389058,14.2497093 23.1268073,14.5977279 23.5920139,15.2937756 C24.0572205,15.9898233 24.2898202,16.895659 24.2898202,18.01131 Z" id="Combined-Shape"></path>
                </g>
            </g>
        </g>
    </g>
</svg>