<?xml version="1.0" encoding="UTF-8"?>
<svg width="158px" height="45px" viewBox="0 0 158 45" version="1.1" xmlns="http://www.w3.org/2000/svg" xmlns:xlink="http://www.w3.org/1999/xlink">
    <!-- Generator: Sketch 53.2 (72643) - https://sketchapp.com -->
    <title>Logo</title>
    <desc>Created with Sketch.</desc>
    <g id="Symbols" stroke="none" stroke-width="1" fill="none" fill-rule="evenodd">
        <g id="Logo-Copy" fill="#FFFFFF">
            <g id="Logo">
                <g id="Group" transform="translate(51.000000, 2.000000)">
                    <path d="M27,29.2929688 L24,29.2929688 L24,17.2929688 L19,29.2929688 L17,29.2929688 L12,17.2929688 L12,29.2929688 L9,29.2929688 L9,12.2929688 L13,12.2929688 L18,24.2929688 L23,12.2929688 L27,12.2929688 L27,29.2929688 Z M30.1132373,29.203125 L30.1132373,12.2929688 L33.6522998,12.2929688 L33.6522998,29.203125 L30.1132373,29.203125 Z M36.4647998,29.203125 L36.4647998,12.2929688 L39.4179248,12.2929688 L47.3163623,23.3085938 L47.4101123,23.3085938 L47.4101123,12.2929688 L50.796831,12.2929688 L50.796831,29.203125 L47.8671435,29.203125 L39.9569873,18.1289062 L39.8515185,18.1289062 L39.8515185,29.203125 L36.4647998,29.203125 Z M53.609331,29.203125 L53.609331,12.2929688 L57.1483935,12.2929688 L57.1483935,29.203125 L53.609331,29.203125 Z M59.9608935,29.203125 L59.9608935,12.2929688 L62.9140185,12.2929688 L70.812456,23.3085938 L70.906206,23.3085938 L70.906206,12.2929688 L74.2929248,12.2929688 L74.2929248,29.203125 L71.3632373,29.203125 L63.453081,18.1289062 L63.3476123,18.1289062 L63.3476123,29.203125 L59.9608935,29.203125 Z M92.2226123,22.1015625 C92.2226123,24.4062615 91.5624626,26.2148372 90.2421435,27.5273438 C88.9140119,28.8398503 87.0741865,29.4960938 84.7226123,29.4960938 C82.1913496,29.4960938 80.2030882,28.7148516 78.7577685,27.1523438 C77.3046362,25.5898359 76.578081,23.4375137 76.578081,20.6953125 C76.578081,17.992174 77.30073,15.8671952 78.7460498,14.3203125 C80.1835569,12.7734298 82.148381,12 84.640581,12 C86.6093408,12 88.2772929,12.5312447 89.6444873,13.59375 C91.0116816,14.6562553 91.8202673,16.0429602 92.0702685,17.7539062 L88.5194873,17.7539062 C88.2616735,16.8710893 87.7929281,16.17969 87.1132373,15.6796875 C86.4257338,15.179685 85.6054295,14.9296875 84.6522998,14.9296875 C83.2538553,14.9296875 82.1601162,15.4335887 81.3710498,16.4414062 C80.5819833,17.4492238 80.187456,18.8515535 80.187456,20.6484375 C80.187456,22.4765716 80.6015144,23.9179635 81.4296435,24.9726562 C82.2499601,26.027349 83.3671364,26.5546875 84.781206,26.5546875 C85.9374618,26.5546875 86.8827648,26.230472 87.6171435,25.5820312 C88.3437096,24.9335905 88.7265183,24.0859427 88.765581,23.0390625 L88.7772998,22.7695312 L85.0976123,22.7695312 L85.0976123,20.1914062 L92.2226123,20.1914062 L92.2226123,22.1015625 Z" id="MINING" fill-rule="nonzero"></path>
                    <path d="M101.438096,26.4382318 L96.999924,22.00006 L86,22 L86,20.000335 L97.99988,20.000335 L103.157923,25.119947 C103.425052,25.041996 103.707604,25.000195 103.999928,25.000195 C105.656756,25.000195 106.999952,26.343175 106.999952,28.000075 C106.999952,29.656975 105.656756,31 103.999928,31 C102.342992,31 101.000012,29.656975 101.000012,28.000075 C101.000012,27.4278989 101.160165,26.8931585 101.438096,26.4382318 Z M7.63792242,3.98448 L5.83476202,3.98448 C5.42731731,5.15781562 4.31200111,6.00012 3.000024,6.00012 C1.343196,6.00012 -8.52651283e-14,4.656825 -8.52651283e-14,2.999925 C-8.52651283e-14,1.343295 1.343196,-5.06261699e-14 3.000024,-5.06261699e-14 C4.30588685,-5.06261699e-14 5.41691754,0.834471832 5.82901946,1.999125 L7.992216,1.999125 L7.992216,2.01020669 L8.000028,1.999935 L11.000016,5.00002 L11.000016,29.000025 L9.000072,29.000025 L9.000072,5.34041374 L7.63792242,3.98448 Z M33.6523718,9.41421457 L33.6523718,13.00002 L31.6689518,13.00002 L31.6689518,9.00015 L34.6386278,5.996745 L34.6416282,6.000225 L40.7763671,6.000225 C41.1838931,4.83492505 42.2835674,4.00002 43.5761678,4.00002 C45.2158238,4.00002 46.5448717,5.34327 46.5448717,7.000215 C46.5448717,8.657115 45.2158238,10.000095 43.5761678,10.000095 C42.2835708,10.000095 41.1838989,9.16536212 40.7763703,8.00016 L35.0546431,8.00016 L33.6523718,9.41421457 Z M3.000024,1.999935 C2.447712,1.999935 1.999944,2.44782 1.999944,2.999925 C1.999944,3.5523 2.447712,3.999915 3.000024,3.999915 C3.552336,3.999915 3.999996,3.5523 3.999996,2.999925 C3.999996,2.44782 3.552336,1.999935 3.000024,1.999935 Z M43.5761677,6.000225 C43.0238557,6.000225 42.5761957,6.447795 42.5761957,7.000215 C42.5761957,7.55232 43.0238557,8.00016 43.5761677,8.00016 C44.1284797,8.00016 44.5761397,7.55232 44.5761397,7.000215 C44.5761397,6.447795 44.1284797,6.000225 43.5761677,6.000225 Z M103.999928,27.00013 C103.447616,27.00013 102.999956,27.4477 102.999956,28.000075 C102.999956,28.552495 103.447616,29.000065 103.999928,29.000065 C104.55224,29.000065 104.9999,28.552495 104.9999,28.000075 C104.9999,27.4477 104.55224,27.00013 103.999928,27.00013 Z" id="Combined-shape-2202"></path>
                    <path d="M13.5527344,37.8530273 L13.5527344,39 L9.22412109,39 C9.27099633,38.5664041 9.41161992,38.1555195 9.64599609,37.767334 C9.88037227,37.3791484 10.3432583,36.864261 11.034668,36.2226562 C11.5913114,35.704099 11.9326166,35.35254 12.0585938,35.1679688 C12.2285165,34.9130847 12.3134766,34.6611341 12.3134766,34.4121094 C12.3134766,34.1367174 12.2395027,33.9250496 12.0915527,33.7770996 C11.9436028,33.6291497 11.7392591,33.5551758 11.4785156,33.5551758 C11.2207018,33.5551758 11.0156258,33.6328117 10.8632812,33.7880859 C10.7109367,33.9433602 10.623047,34.2011701 10.5996094,34.5615234 L9.36914062,34.4384766 C9.44238318,33.7587857 9.67236135,33.2709976 10.059082,32.9750977 C10.4458027,32.6791977 10.9291963,32.53125 11.5092773,32.53125 C12.1450227,32.53125 12.6445294,32.702635 13.0078125,33.0454102 C13.3710956,33.3881853 13.5527344,33.8144506 13.5527344,34.3242188 C13.5527344,34.6142593 13.5007329,34.8903795 13.3967285,35.1525879 C13.2927241,35.4147962 13.1279308,35.6894517 12.9023438,35.9765625 C12.7529289,36.1669931 12.4834004,36.4409162 12.09375,36.7983398 C11.7040996,37.1557635 11.4572759,37.3930658 11.3532715,37.5102539 C11.2492671,37.627442 11.1650394,37.7416987 11.1005859,37.8530273 L13.5527344,37.8530273 Z M18.8525391,39 L18.8525391,36.2885742 L16.4926758,32.5576172 L18.0175781,32.5576172 L19.5336914,35.1064453 L21.019043,32.5576172 L22.5175781,32.5576172 L20.1489258,36.2973633 L20.1489258,39 L18.8525391,39 Z M25.8574219,37.5146484 L27.0878906,37.7211914 C26.9296867,38.1723655 26.6799333,38.515868 26.338623,38.751709 C25.9973127,38.98755 25.5703151,39.1054688 25.0576172,39.1054688 C24.2460897,39.1054688 23.6455098,38.8403347 23.2558594,38.3100586 C22.9482406,37.8852518 22.7944336,37.3491243 22.7944336,36.7016602 C22.7944336,35.9282188 22.99658,35.322512 23.4008789,34.8845215 C23.8051778,34.446531 24.3164032,34.2275391 24.9345703,34.2275391 C25.6289097,34.2275391 26.1767558,34.4567848 26.578125,34.9152832 C26.9794942,35.3737816 27.1713868,36.0761671 27.1538086,37.0224609 L24.0600586,37.0224609 C24.0688477,37.3886737 24.1684561,37.673583 24.3588867,37.8771973 C24.5493174,38.0808116 24.7866197,38.1826172 25.0708008,38.1826172 C25.2641611,38.1826172 25.4267572,38.1298833 25.5585938,38.0244141 C25.6904303,37.9189448 25.7900387,37.7490246 25.8574219,37.5146484 Z M25.9277344,36.2666016 C25.9189453,35.9091779 25.826661,35.6374521 25.6508789,35.451416 C25.4750968,35.2653799 25.2612317,35.1723633 25.0092773,35.1723633 C24.7397447,35.1723633 24.5170907,35.2705068 24.3413086,35.4667969 C24.1655265,35.6630869 24.0791015,35.9296858 24.0820312,36.2666016 L25.9277344,36.2666016 Z M29.0830078,35.7568359 L27.9624023,35.5546875 C28.0883795,35.1035134 28.3051742,34.7695323 28.612793,34.5527344 C28.9204117,34.3359364 29.3774384,34.2275391 29.9838867,34.2275391 C30.5346707,34.2275391 30.9448229,34.292724 31.2143555,34.4230957 C31.4838881,34.5534674 31.6735834,34.7189931 31.7834473,34.9196777 C31.8933111,35.1203623 31.9482422,35.4887669 31.9482422,36.0249023 L31.9350586,37.4663086 C31.9350586,37.8764669 31.9548338,38.1789541 31.9943848,38.3737793 C32.0339357,38.5686045 32.1079096,38.7773426 32.2163086,39 L30.9946289,39 C30.9624022,38.9179683 30.9228518,38.7963875 30.8759766,38.6352539 C30.8554686,38.5620114 30.8408204,38.513672 30.8320312,38.4902344 C30.6210927,38.6953135 30.395509,38.8491206 30.1552734,38.9516602 C29.9150379,39.0541997 29.6586928,39.1054688 29.3862305,39.1054688 C28.9057593,39.1054688 28.527101,38.975099 28.2502441,38.7143555 C27.9733873,38.453612 27.8349609,38.1240254 27.8349609,37.7255859 C27.8349609,37.4619127 27.8979486,37.2268077 28.0239258,37.0202637 C28.149903,36.8137197 28.3264149,36.6555181 28.5534668,36.5456543 C28.7805187,36.4357905 29.107908,36.3398442 29.5356445,36.2578125 C30.1127959,36.1494135 30.5126942,36.0483403 30.7353516,35.9545898 L30.7353516,35.831543 C30.7353516,35.5942371 30.6767584,35.4250493 30.5595703,35.3239746 C30.4423822,35.2228999 30.221193,35.1723633 29.8959961,35.1723633 C29.6762684,35.1723633 29.5048834,35.2155757 29.3818359,35.302002 C29.2587884,35.3884282 29.1591801,35.540038 29.0830078,35.7568359 Z M30.7353516,36.7587891 C30.5771476,36.8115237 30.3266619,36.8745114 29.9838867,36.9477539 C29.6411116,37.0209965 29.4169927,37.0927731 29.3115234,37.1630859 C29.1503898,37.2773443 29.0698242,37.4223624 29.0698242,37.5981445 C29.0698242,37.770997 29.1342767,37.9204095 29.2631836,38.0463867 C29.3920905,38.1723639 29.5561513,38.2353516 29.7553711,38.2353516 C29.9780285,38.2353516 30.1904287,38.1621101 30.3925781,38.015625 C30.5419929,37.9042963 30.6401365,37.7680672 30.6870117,37.6069336 C30.7192384,37.5014643 30.7353516,37.3007827 30.7353516,37.0048828 L30.7353516,36.7587891 Z M34.3476562,39 L33.112793,39 L33.112793,34.3330078 L34.2597656,34.3330078 L34.2597656,34.996582 C34.4560557,34.6831039 34.6325676,34.476563 34.7893066,34.3769531 C34.9460457,34.2773433 35.1240224,34.2275391 35.3232422,34.2275391 C35.6044936,34.2275391 35.875487,34.305175 36.1362305,34.4604492 L35.7539062,35.5371094 C35.5458974,35.4023431 35.35254,35.3349609 35.1738281,35.3349609 C35.0009757,35.3349609 34.8544928,35.3825679 34.734375,35.4777832 C34.6142572,35.5729985 34.5197757,35.7451159 34.4509277,35.9941406 C34.3820797,36.2431653 34.3476562,36.7646445 34.3476562,37.5585938 L34.3476562,39 Z M36.2329102,37.668457 L37.472168,37.4794922 C37.5249026,37.7197278 37.6318351,37.902099 37.7929688,38.0266113 C37.9541024,38.1511237 38.179686,38.2133789 38.4697266,38.2133789 C38.7890641,38.2133789 39.0292961,38.1547857 39.1904297,38.0375977 C39.2988287,37.955566 39.3530273,37.8457038 39.3530273,37.7080078 C39.3530273,37.6142573 39.3237308,37.5366214 39.2651367,37.4750977 C39.203613,37.4165036 39.065919,37.3623049 38.8520508,37.3125 C37.8559521,37.0927723 37.2246107,36.8920908 36.9580078,36.7104492 C36.5888653,36.4584948 36.4042969,36.1084007 36.4042969,35.6601562 C36.4042969,35.2558574 36.5639632,34.916017 36.8833008,34.640625 C37.2026383,34.365233 37.6977506,34.2275391 38.3686523,34.2275391 C39.0073274,34.2275391 39.481932,34.3315419 39.7924805,34.5395508 C40.1030289,34.7475596 40.3168939,35.0551737 40.434082,35.4624023 L39.2695312,35.6777344 C39.2197263,35.4960928 39.1252448,35.3569341 38.986084,35.2602539 C38.8469231,35.1635737 38.6484388,35.1152344 38.390625,35.1152344 C38.0654281,35.1152344 37.8325202,35.1606441 37.6918945,35.2514648 C37.5981441,35.3159183 37.5512695,35.3994135 37.5512695,35.5019531 C37.5512695,35.5898442 37.5922847,35.6645505 37.6743164,35.7260742 C37.7856451,35.8081059 38.1701627,35.9238274 38.8278809,36.0732422 C39.485599,36.222657 39.9448229,36.4057606 40.2055664,36.6225586 C40.4633802,36.8422863 40.5922852,37.1484355 40.5922852,37.5410156 C40.5922852,37.9687521 40.413576,38.3364242 40.0561523,38.644043 C39.6987287,38.9516617 39.1699254,39.1054688 38.4697266,39.1054688 C37.8339812,39.1054688 37.3308124,38.9765638 36.9602051,38.71875 C36.5895978,38.4609362 36.3471685,38.1108421 36.2329102,37.668457 Z M43.8881836,36.6005859 C43.8881836,36.1904276 43.9892568,35.793459 44.1914062,35.409668 C44.3935557,35.025877 44.6799298,34.7329112 45.0505371,34.5307617 C45.4211444,34.3286123 45.8349587,34.2275391 46.2919922,34.2275391 C46.9980504,34.2275391 47.5766579,34.4567848 48.027832,34.9152832 C48.4790062,35.3737816 48.7045898,35.9531215 48.7045898,36.6533203 C48.7045898,37.3593785 48.4768089,37.9445778 48.0212402,38.4089355 C47.5656716,38.8732933 46.992191,39.1054688 46.3007812,39.1054688 C45.8730447,39.1054688 45.4650898,39.00879 45.0769043,38.8154297 C44.6887188,38.6220693 44.3935557,38.3386249 44.1914062,37.9650879 C43.9892568,37.5915509 43.8881836,37.1367214 43.8881836,36.6005859 Z M45.1538086,36.6665039 C45.1538086,37.1293968 45.2636708,37.4838855 45.4833984,37.7299805 C45.7031261,37.9760754 45.9741195,38.0991211 46.2963867,38.0991211 C46.618654,38.0991211 46.8889149,37.9760754 47.1071777,37.7299805 C47.3254405,37.4838855 47.4345703,37.1264672 47.4345703,36.6577148 C47.4345703,36.2006813 47.3254405,35.8491223 47.1071777,35.6030273 C46.8889149,35.3569324 46.618654,35.2338867 46.2963867,35.2338867 C45.9741195,35.2338867 45.7031261,35.3569324 45.4833984,35.6030273 C45.2636708,35.8491223 45.1538086,36.203611 45.1538086,36.6665039 Z M49.1308594,34.3330078 L49.8164062,34.3330078 L49.8164062,33.9814453 C49.8164062,33.5888652 49.8581539,33.2958994 49.9416504,33.1025391 C50.0251469,32.9091787 50.178954,32.7517096 50.4030762,32.630127 C50.6271984,32.5085443 50.9106428,32.4477539 51.253418,32.4477539 C51.6049822,32.4477539 51.9492171,32.5004878 52.2861328,32.605957 L52.1191406,33.4672852 C51.9228506,33.4204099 51.7338876,33.3969727 51.5522461,33.3969727 C51.3735343,33.3969727 51.2453617,33.4387203 51.1677246,33.5222168 C51.0900875,33.6057133 51.0512695,33.7661121 51.0512695,34.003418 L51.0512695,34.3330078 L51.9741211,34.3330078 L51.9741211,35.3041992 L51.0512695,35.3041992 L51.0512695,39 L49.8164062,39 L49.8164062,35.3041992 L49.1308594,35.3041992 L49.1308594,34.3330078 Z M54.8481445,36.9038086 L56.1137695,36.7807617 C56.1899418,37.2055685 56.3444813,37.5175771 56.5773926,37.7167969 C56.8103039,37.9160166 57.1245097,38.015625 57.5200195,38.015625 C57.9389669,38.015625 58.2546376,37.9270028 58.467041,37.7497559 C58.6794444,37.5725089 58.7856445,37.3652356 58.7856445,37.1279297 C58.7856445,36.9755852 58.7409672,36.8459478 58.6516113,36.7390137 C58.5622554,36.6320795 58.4062511,36.5390629 58.1835938,36.4599609 C58.0312492,36.4072263 57.6840847,36.3134772 57.1420898,36.1787109 C56.4448207,36.0058585 55.9555678,35.7934583 55.6743164,35.5415039 C55.2788066,35.1870099 55.0810547,34.7548854 55.0810547,34.2451172 C55.0810547,33.9169905 55.1740713,33.6101089 55.3601074,33.3244629 C55.5461435,33.0388169 55.8142072,32.8212898 56.1643066,32.671875 C56.514406,32.5224602 56.9370092,32.4477539 57.4321289,32.4477539 C58.2407267,32.4477539 58.8493632,32.6249982 59.2580566,32.9794922 C59.6667501,33.3339861 59.8813476,33.8071259 59.9018555,34.3989258 L58.6010742,34.4560547 C58.5454099,34.1249983 58.4260263,33.8869636 58.2429199,33.7419434 C58.0598135,33.5969231 57.7851581,33.5244141 57.4189453,33.5244141 C57.0410137,33.5244141 56.7451183,33.60205 56.53125,33.7573242 C56.393554,33.8569341 56.324707,33.9902335 56.324707,34.1572266 C56.324707,34.3095711 56.3891595,34.4399409 56.5180664,34.5483398 C56.6821297,34.6860358 57.0805632,34.8295891 57.7133789,34.9790039 C58.3461946,35.1284187 58.8142075,35.2829582 59.1174316,35.442627 C59.4206558,35.6022957 59.6579581,35.8205553 59.8293457,36.0974121 C60.0007333,36.374269 60.0864258,36.7163066 60.0864258,37.1235352 C60.0864258,37.4926776 59.9838877,37.8383773 59.7788086,38.1606445 C59.5737294,38.4829118 59.2836933,38.7224113 58.9086914,38.8791504 C58.5336895,39.0358895 58.066409,39.1142578 57.5068359,39.1142578 C56.6923787,39.1142578 56.0668967,38.9260273 55.6303711,38.5495605 C55.1938455,38.1730938 54.9331059,37.6245153 54.8481445,36.9038086 Z M64.2436523,39 L64.2436523,38.3012695 C64.0737296,38.5502942 63.8503432,38.7465813 63.5734863,38.8901367 C63.2966295,39.0336921 63.0043961,39.1054688 62.6967773,39.1054688 C62.3832992,39.1054688 62.102052,39.0366218 61.8530273,38.8989258 C61.6040027,38.7612298 61.4238287,38.5678723 61.3125,38.3188477 C61.2011713,38.069823 61.1455078,37.7255881 61.1455078,37.2861328 L61.1455078,34.3330078 L62.3803711,34.3330078 L62.3803711,36.4775391 C62.3803711,37.1337923 62.4030759,37.5358879 62.4484863,37.6838379 C62.4938967,37.8317878 62.5766596,37.9489742 62.6967773,38.0354004 C62.8168951,38.1218266 62.9692374,38.1650391 63.1538086,38.1650391 C63.3647471,38.1650391 63.5537101,38.1071783 63.7207031,37.9914551 C63.8876961,37.8757318 64.0019528,37.7321786 64.0634766,37.560791 C64.1250003,37.3894034 64.1557617,36.9697299 64.1557617,36.3017578 L64.1557617,34.3330078 L65.390625,34.3330078 L65.390625,39 L64.2436523,39 Z M70.7387695,35.7128906 L69.5214844,35.9326172 C69.4804685,35.6894519 69.3874519,35.5063483 69.2424316,35.3833008 C69.0974114,35.2602533 68.9091808,35.1987305 68.6777344,35.1987305 C68.3701156,35.1987305 68.1247568,35.3049306 67.9416504,35.517334 C67.758544,35.7297374 67.6669922,36.0849584 67.6669922,36.5830078 C67.6669922,37.1367215 67.7600088,37.5278309 67.9460449,37.7563477 C68.132081,37.9848644 68.3818344,38.0991211 68.6953125,38.0991211 C68.9296887,38.0991211 69.1215813,38.0324714 69.2709961,37.8991699 C69.4204109,37.7658685 69.5258786,37.5366227 69.5874023,37.2114258 L70.800293,37.4179688 C70.6743158,37.9746122 70.432619,38.3950181 70.0751953,38.6791992 C69.7177717,38.9633803 69.2387725,39.1054688 68.6381836,39.1054688 C67.955563,39.1054688 67.411379,38.8901389 67.0056152,38.4594727 C66.5998515,38.0288064 66.3969727,37.432621 66.3969727,36.6708984 C66.3969727,35.9003868 66.6005839,35.3005393 67.0078125,34.8713379 C67.4150411,34.4421365 67.9658168,34.2275391 68.6601562,34.2275391 C69.2285185,34.2275391 69.6804182,34.3498523 70.0158691,34.5944824 C70.35132,34.8391126 70.5922844,35.2119116 70.7387695,35.7128906 Z M75.7441406,35.7128906 L74.5268555,35.9326172 C74.4858396,35.6894519 74.392823,35.5063483 74.2478027,35.3833008 C74.1027825,35.2602533 73.9145519,35.1987305 73.6831055,35.1987305 C73.3754867,35.1987305 73.1301279,35.3049306 72.9470215,35.517334 C72.7639151,35.7297374 72.6723633,36.0849584 72.6723633,36.5830078 C72.6723633,37.1367215 72.7653799,37.5278309 72.951416,37.7563477 C73.1374521,37.9848644 73.3872055,38.0991211 73.7006836,38.0991211 C73.9350598,38.0991211 74.1269524,38.0324714 74.2763672,37.8991699 C74.425782,37.7658685 74.5312497,37.5366227 74.5927734,37.2114258 L75.8056641,37.4179688 C75.6796869,37.9746122 75.4379901,38.3950181 75.0805664,38.6791992 C74.7231427,38.9633803 74.2441436,39.1054688 73.6435547,39.1054688 C72.9609341,39.1054688 72.4167501,38.8901389 72.0109863,38.4594727 C71.6052226,38.0288064 71.4023438,37.432621 71.4023438,36.6708984 C71.4023438,35.9003868 71.605955,35.3005393 72.0131836,34.8713379 C72.4204122,34.4421365 72.9711879,34.2275391 73.6655273,34.2275391 C74.2338896,34.2275391 74.6857893,34.3498523 75.0212402,34.5944824 C75.3566911,34.8391126 75.5976555,35.2119116 75.7441406,35.7128906 Z M79.3828125,37.5146484 L80.6132812,37.7211914 C80.4550773,38.1723655 80.205324,38.515868 79.8640137,38.751709 C79.5227034,38.98755 79.0957057,39.1054688 78.5830078,39.1054688 C77.7714803,39.1054688 77.1709004,38.8403347 76.78125,38.3100586 C76.4736313,37.8852518 76.3198242,37.3491243 76.3198242,36.7016602 C76.3198242,35.9282188 76.5219706,35.322512 76.9262695,34.8845215 C77.3305684,34.446531 77.8417938,34.2275391 78.4599609,34.2275391 C79.1543003,34.2275391 79.7021464,34.4567848 80.1035156,34.9152832 C80.5048848,35.3737816 80.6967774,36.0761671 80.6791992,37.0224609 L77.5854492,37.0224609 C77.5942383,37.3886737 77.6938467,37.673583 77.8842773,37.8771973 C78.074708,38.0808116 78.3120103,38.1826172 78.5961914,38.1826172 C78.7895517,38.1826172 78.9521478,38.1298833 79.0839844,38.0244141 C79.215821,37.9189448 79.3154294,37.7490246 79.3828125,37.5146484 Z M79.453125,36.2666016 C79.4443359,35.9091779 79.3520517,35.6374521 79.1762695,35.451416 C79.0004874,35.2653799 78.7866224,35.1723633 78.534668,35.1723633 C78.2651354,35.1723633 78.0424813,35.2705068 77.8666992,35.4667969 C77.6909171,35.6630869 77.6044922,35.9296858 77.6074219,36.2666016 L79.453125,36.2666016 Z M81.2504883,37.668457 L82.4897461,37.4794922 C82.5424807,37.7197278 82.6494133,37.902099 82.8105469,38.0266113 C82.9716805,38.1511237 83.1972642,38.2133789 83.4873047,38.2133789 C83.8066422,38.2133789 84.0468742,38.1547857 84.2080078,38.0375977 C84.3164068,37.955566 84.3706055,37.8457038 84.3706055,37.7080078 C84.3706055,37.6142573 84.3413089,37.5366214 84.2827148,37.4750977 C84.2211911,37.4165036 84.0834972,37.3623049 83.8696289,37.3125 C82.8735302,37.0927723 82.2421888,36.8920908 81.9755859,36.7104492 C81.6064435,36.4584948 81.421875,36.1084007 81.421875,35.6601562 C81.421875,35.2558574 81.5815414,34.916017 81.9008789,34.640625 C82.2202164,34.365233 82.7153287,34.2275391 83.3862305,34.2275391 C84.0249055,34.2275391 84.4995102,34.3315419 84.8100586,34.5395508 C85.120607,34.7475596 85.3344721,35.0551737 85.4516602,35.4624023 L84.2871094,35.6777344 C84.2373044,35.4960928 84.142823,35.3569341 84.0036621,35.2602539 C83.8645013,35.1635737 83.6660169,35.1152344 83.4082031,35.1152344 C83.0830062,35.1152344 82.8500984,35.1606441 82.7094727,35.2514648 C82.6157222,35.3159183 82.5688477,35.3994135 82.5688477,35.5019531 C82.5688477,35.5898442 82.6098629,35.6645505 82.6918945,35.7260742 C82.8032232,35.8081059 83.1877409,35.9238274 83.845459,36.0732422 C84.5031771,36.222657 84.962401,36.4057606 85.2231445,36.6225586 C85.4809583,36.8422863 85.6098633,37.1484355 85.6098633,37.5410156 C85.6098633,37.9687521 85.4311541,38.3364242 85.0737305,38.644043 C84.7163068,38.9516617 84.1875035,39.1054688 83.4873047,39.1054688 C82.8515593,39.1054688 82.3483905,38.9765638 81.9777832,38.71875 C81.6071759,38.4609362 81.3647467,38.1108421 81.2504883,37.668457 Z M86.2558594,37.668457 L87.4951172,37.4794922 C87.5478518,37.7197278 87.6547844,37.902099 87.815918,38.0266113 C87.9770516,38.1511237 88.2026353,38.2133789 88.4926758,38.2133789 C88.8120133,38.2133789 89.0522453,38.1547857 89.2133789,38.0375977 C89.3217779,37.955566 89.3759766,37.8457038 89.3759766,37.7080078 C89.3759766,37.6142573 89.34668,37.5366214 89.2880859,37.4750977 C89.2265622,37.4165036 89.0888683,37.3623049 88.875,37.3125 C87.8789013,37.0927723 87.2475599,36.8920908 86.980957,36.7104492 C86.6118146,36.4584948 86.4272461,36.1084007 86.4272461,35.6601562 C86.4272461,35.2558574 86.5869125,34.916017 86.90625,34.640625 C87.2255875,34.365233 87.7206998,34.2275391 88.3916016,34.2275391 C89.0302766,34.2275391 89.5048813,34.3315419 89.8154297,34.5395508 C90.1259781,34.7475596 90.3398432,35.0551737 90.4570312,35.4624023 L89.2924805,35.6777344 C89.2426755,35.4960928 89.1481941,35.3569341 89.0090332,35.2602539 C88.8698724,35.1635737 88.671388,35.1152344 88.4135742,35.1152344 C88.0883773,35.1152344 87.8554695,35.1606441 87.7148438,35.2514648 C87.6210933,35.3159183 87.5742188,35.3994135 87.5742188,35.5019531 C87.5742188,35.5898442 87.615234,35.6645505 87.6972656,35.7260742 C87.8085943,35.8081059 88.1931119,35.9238274 88.8508301,36.0732422 C89.5085482,36.222657 89.9677721,36.4057606 90.2285156,36.6225586 C90.4863294,36.8422863 90.6152344,37.1484355 90.6152344,37.5410156 C90.6152344,37.9687521 90.4365252,38.3364242 90.0791016,38.644043 C89.7216779,38.9516617 89.1928746,39.1054688 88.4926758,39.1054688 C87.8569304,39.1054688 87.3537616,38.9765638 86.9831543,38.71875 C86.612547,38.4609362 86.3701178,38.1108421 86.2558594,37.668457 Z M92.1796875,37.3388672 L91.8588867,34.0693359 L91.8588867,32.5576172 L93.1948242,32.5576172 L93.1948242,34.0693359 L92.878418,37.3388672 L92.1796875,37.3388672 Z M91.9116211,39 L91.9116211,37.7651367 L93.1464844,37.7651367 L93.1464844,39 L91.9116211,39 Z" id="2YearsofSuccess!" fill-rule="nonzero"></path>
                </g>
                <path d="M40.000008,33.0852464 C40.156394,33.0299771 40.3246821,32.999904 40.499994,32.999904 L43.500004,32.999904 C44.328379,32.999904 44.999962,33.671424 44.999962,34.499856 C44.999962,35.328336 44.328379,35.999808 43.500004,35.999808 L40.499994,35.999808 C40.2182208,35.999808 39.9545924,35.9221254 39.7293638,35.7870042 C39.1446864,37.6634704 37.6635734,39.1446042 35.7871352,39.7293108 C35.9222787,39.9545358 35.999979,40.2181668 35.999979,40.499952 L35.999979,43.499904 C35.999979,44.328336 35.328396,44.999856 34.499974,44.999856 C33.671599,44.999856 33.000016,44.328336 33.000016,43.499904 L33.000016,40.499952 C33.000016,40.3246439 33.0300899,40.1563623 33.0853595,39.999984 L27.9146241,39.999984 C27.9698941,40.1563623 27.999968,40.3246439 27.999968,40.499952 L27.999968,43.499904 C27.999968,44.328336 27.328385,44.999856 26.499963,44.999856 C25.671588,44.999856 25.000005,44.328336 25.000005,43.499904 L25.000005,40.499952 C25.000005,40.3246439 25.0300789,40.1563623 25.0853485,39.999984 L19.9146135,39.999984 C19.9698831,40.1563623 19.999957,40.3246439 19.999957,40.499952 L19.999957,43.499904 C19.999957,44.328336 19.328374,44.999856 18.499999,44.999856 C17.671577,44.999856 16.999994,44.328336 16.999994,43.499904 L16.999994,40.499952 C16.999994,40.3246439 17.0300679,40.1563623 17.0853379,39.999984 L11.9146025,39.999984 C11.9698721,40.1563623 11.999946,40.3246439 11.999946,40.499952 L11.999946,43.499904 C11.999946,44.328336 11.328363,44.999856 10.499988,44.999856 C9.671519,44.999856 8.999983,44.328336 8.999983,43.499904 L8.999983,40.499952 C8.999983,40.2181675 9.07767742,39.9545372 9.21281494,39.7293125 C7.33636215,39.1446066 5.85526174,37.6634698 5.27059267,35.7869995 C5.04535536,35.9221235 4.78171347,35.999808 4.499921,35.999808 L1.499958,35.999808 C0.671583,35.999808 5.32907052e-15,35.328336 5.32907052e-15,34.499856 C5.32907052e-15,33.671424 0.671583,32.999904 1.499958,32.999904 L4.499921,32.999904 C4.67525149,32.999904 4.84355535,33.0299801 4.999954,33.0852545 L4.999954,27.9146533 C4.84355535,27.9699452 4.67525149,28.000032 4.499921,28.000032 L1.499958,28.000032 C0.671583,28.000032 5.32907052e-15,27.328272 5.32907052e-15,26.499792 C5.32907052e-15,25.671648 0.671583,24.99984 1.499958,24.99984 L4.499921,24.99984 C4.67525149,24.99984 4.84355535,25.029929 4.999954,25.085221 L4.999954,19.9146655 C4.84355535,19.9699399 4.67525149,20.000016 4.499921,20.000016 L1.499958,20.000016 C0.671583,20.000016 5.32907052e-15,19.328496 5.32907052e-15,18.500064 C5.32907052e-15,17.671584 0.671583,16.999824 1.499958,16.999824 L4.499921,16.999824 C4.67525149,16.999824 4.84355535,17.0299108 4.999954,17.0852027 L4.999954,11.9146015 C4.84355535,11.9698759 4.67525149,11.999952 4.499921,11.999952 L1.499958,11.999952 C0.671583,11.999952 5.32907052e-15,11.328432 5.32907052e-15,10.5 C5.32907052e-15,9.67152 0.671583,9.000048 1.499958,9.000048 L4.499921,9.000048 C4.78171347,9.000048 5.04535536,9.07773246 5.27059267,9.21285654 C5.85526174,7.3363862 7.33636215,5.85524937 9.21281494,5.27054349 C9.07767742,5.04531884 8.999983,4.78168851 8.999983,4.499904 L8.999983,1.499952 C8.999983,0.67152 9.671519,-1.77635684e-15 10.499988,-1.77635684e-15 C11.328363,-1.77635684e-15 11.999946,0.67152 11.999946,1.499952 L11.999946,4.499904 C11.999946,4.67521214 11.9698721,4.84349365 11.9146025,4.999872 L17.0853379,4.999872 C17.0300679,4.84349365 16.999994,4.67521214 16.999994,4.499904 L16.999994,1.499952 C16.999994,0.67152 17.671577,-1.77635684e-15 18.499999,-1.77635684e-15 C19.328374,-1.77635684e-15 19.999957,0.67152 19.999957,1.499952 L19.999957,4.499904 C19.999957,4.67521214 19.9698831,4.84349365 19.9146135,4.999872 L25.0853485,4.999872 C25.0300789,4.84349365 25.000005,4.67521214 25.000005,4.499904 L25.000005,1.499952 C25.000005,0.67152 25.671588,-1.77635684e-15 26.499963,-1.77635684e-15 C27.328385,-1.77635684e-15 27.999968,0.67152 27.999968,1.499952 L27.999968,4.499904 C27.999968,4.67521214 27.9698941,4.84349365 27.9146241,4.999872 L33.0853595,4.999872 C33.0300899,4.84349365 33.000016,4.67521214 33.000016,4.499904 L33.000016,1.499952 C33.000016,0.67152 33.671599,-1.77635684e-15 34.499974,-1.77635684e-15 C35.328396,-1.77635684e-15 35.999979,0.67152 35.999979,1.499952 L35.999979,4.499904 C35.999979,4.78168925 35.9222787,5.04532022 35.7871352,5.27054525 C37.6635734,5.85525184 39.1446864,7.33638557 39.7293638,9.21285176 C39.9545924,9.07773063 40.2182208,9.000048 40.499994,9.000048 L43.500004,9.000048 C44.328379,9.000048 44.999962,9.67152 44.999962,10.5 C44.999962,11.328432 44.328379,11.999952 43.500004,11.999952 L40.499994,11.999952 C40.3246821,11.999952 40.156394,11.9698789 40.000008,11.9146096 L40.000008,17.0851945 C40.156394,17.0299079 40.3246821,16.999824 40.499994,16.999824 L43.500004,16.999824 C44.328379,16.999824 44.999962,17.671584 44.999962,18.500064 C44.999962,19.328496 44.328379,20.000016 43.500004,20.000016 L40.499994,20.000016 C40.3246821,20.000016 40.156394,19.9699429 40.000008,19.9146736 L40.000008,25.0852129 C40.156394,25.029926 40.3246821,24.99984 40.499994,24.99984 L43.500004,24.99984 C44.328379,24.99984 44.999962,25.671648 44.999962,26.499792 C44.999962,27.328272 44.328379,28.000032 43.500004,28.000032 L40.499994,28.000032 C40.3246821,28.000032 40.156394,27.9699481 40.000008,27.9146615 L40.000008,33.0852464 Z M11.999946,8.000064 C9.790852,8.000064 8.000011,9.790944 8.000011,11.999952 L8.000011,32.999904 C8.000011,35.2092 9.790852,37.00008 11.999946,37.00008 L33.000016,37.00008 C35.20911,37.00008 36.999998,35.2092 36.999998,32.999904 L36.999998,11.999952 C36.999998,9.790944 35.20911,8.000064 33.000016,8.000064 L11.999946,8.000064 Z M12.999965,9.999984 L28.999987,9.999984 L34.99996,15.99984 L34.99996,31.999632 C34.99996,33.656832 33.656794,34.999872 31.999997,34.999872 L12.999965,34.999872 C11.343121,34.999872 10.000002,33.656832 10.000002,31.999632 L10.000002,12.999936 C10.000002,11.343024 11.343121,9.999984 12.999965,9.999984 Z M13.4886929,16.8241313 L14.8748576,17.0907014 L14.8748576,26.3762276 L13.4886929,26.6427977 L13.4886929,28.1977901 L18.8467525,28.1977901 L18.8467525,26.6427977 L17.4605878,26.3762276 L17.4605878,17.0907014 L18.8467525,16.8241313 L18.8467525,15.2602532 L13.4886929,15.2602532 L13.4886929,16.8241313 Z M31.65989,21.8267641 L31.65989,21.6312793 C31.65989,19.7475076 31.1163886,18.1836452 30.0293694,16.939645 C28.9423502,15.6956449 27.522138,15.0736541 25.7686902,15.0736541 C24.0211662,15.0736541 22.6113205,15.6956449 21.5391108,16.939645 C20.4669011,18.1836452 19.9308044,19.7475076 19.9308044,21.6312793 L19.9308044,21.8267641 C19.9308044,23.7223833 20.4683821,25.2892077 21.5435536,26.527284 C22.6187252,27.7653603 24.0300518,28.3843892 25.7775759,28.3843892 C26.0086045,28.3843892 26.2411105,28.3695799 26.475101,28.3399609 C26.7090915,28.3103418 26.9415976,28.2718376 27.1726262,28.2244472 L30.2737254,30.3125798 L32.1041736,28.8997582 L29.3496156,27.1848237 C30.0782442,26.5983664 30.6454406,25.8401301 31.0512216,24.9100919 C31.4570026,23.9800537 31.65989,22.952288 31.65989,21.8267641 Z M29.0741598,21.613508 L29.0741598,21.8267641 C29.0741598,23.1892404 28.7987067,24.2866098 28.2477924,25.1189052 C27.696878,25.9512005 26.8734808,26.3673419 25.7775759,26.3673419 C24.6935186,26.3673419 23.8804878,25.9512005 23.3384592,25.1189052 C22.7964305,24.2866098 22.5254203,23.1892404 22.5254203,21.8267641 L22.5254203,21.613508 C22.5254203,20.2628792 22.7934687,19.1729145 23.3295735,18.343581 C23.8656783,17.5142476 24.6787091,17.0995871 25.7686902,17.0995871 C26.8586713,17.0995871 27.6820685,17.5172095 28.2389067,18.3524667 C28.7957449,19.187724 29.0741598,20.2747268 29.0741598,21.613508 Z" id="Combined-Shape"></path>
            </g>
        </g>
    </g>
</svg>